<svg width="571" height="634" viewBox="0 0 571 634" fill="none" xmlns="http://www.w3.org/2000/svg">
<path d="M317.222 634H253.778V602.3H190.333V570.6H126.889V538.9H63.4444V507.2H0V126.8H63.4444V95.1H126.889V63.4H190.333V31.7H253.778V0H317.222V31.7H380.667V63.4H444.111V95.1H507.556V126.8H571V507.2H507.556V538.9H444.111V570.6H380.667V602.3H317.222M317.222 285.3V253.6H380.667V221.9H444.111V190.2H507.556V158.5H444.111V126.8H380.667V95.1H317.222V63.4H253.778V95.1H190.333V126.8H126.889V158.5H63.4444V190.2H126.889V221.9H190.333V253.6H253.778V285.3M253.778 538.9V317H190.333V285.3H126.889V253.6H63.4444V475.5H126.889V507.2H190.333V538.9M380.667 538.9V507.2H444.111V475.5H507.556V253.6H444.111V285.3H380.667V317H317.222V538.9H380.667Z" fill="white"/>
</svg>
